<?xml version="1.0" encoding="utf-8"?>
<!-- Generator: Adobe Illustrator 23.0.2, SVG Export Plug-In . SVG Version: 6.00 Build 0)  -->
<svg version="1.1" id="Calque_1" xmlns="http://www.w3.org/2000/svg" xmlns:xlink="http://www.w3.org/1999/xlink" x="0px" y="0px"
	 viewBox="0 0 817 365" style="enable-background:new 0 0 817 365;" xml:space="preserve">
<style type="text/css">
	.st0{fill:#FFFFFF;}
	.st1{font-family:'Roboto-Bold';}
	.st2{font-size:117.0978px;}
	.st3{letter-spacing:-1;}
</style>
<text transform="matrix(1 0 0 1 304.2178 224.4746)" class="st0 st1 st2 st3">FARMAN</text>
<g>
	<g>
		<path class="st0" d="M251.8,82c-53.4,0-96.8,43.3-96.8,96.8v3.2h3.2c53.4,0,96.8-43.3,96.8-96.8V82H251.8z"/>
		<path class="st0" d="M55,278.8v3.2h3.2c53.4,0,96.8-43.3,96.8-96.8V182h-3.2C98.3,182,55,225.3,55,278.8z"/>
	</g>
	<g>
		<path class="st0" d="M55,85.2c0,53.4,43.3,96.8,96.8,96.8h3.2V82H55V85.2z"/>
		<path class="st0" d="M158.2,182H155v100h100v-3.2C255,225.3,211.7,182,158.2,182z"/>
	</g>
</g>
</svg>
